<svg role="img" viewBox="0 0 24 24" xmlns="http://www.w3.org/2000/svg" fill="#0c163b"><title>Bubble</title><path d="M2.93 0A2.936 2.936 0 0 0 0 2.93v18.14A2.936 2.936 0 0 0 2.93 24h18.14A2.936 2.936 0 0 0 24 21.07V2.93A2.936 2.936 0 0 0 21.07 0H2.93Zm11.396 6.13c1.785 0 2.827.85 2.827 2.457 0 1.258-.612 2.057-1.462 2.38v.034c1.139.272 2.023 1.139 2.023 2.567 0 1.904-1.377 3.094-3.524 3.094H8.75V6.13h5.576Zm-3.15 4.301h2.89c.816 0 1.275-.374 1.275-1.071 0-.748-.476-1.122-1.275-1.122h-2.89v2.193Zm0 4.675h3.145c.952 0 1.513-.425 1.513-1.241 0-.867-.578-1.275-1.513-1.275h-3.145v2.516Z"/></svg>